inDegrees=no
num_controls=7
num_derivatives=13
num_iterations=148
num_multipliers=7
num_parameters=0
num_slacks=7
num_states=26
objective=4.378299
objective_accelerations=0.227736
objective_balance=0.037312
objective_effort=0.310342
objective_height=3.753596
objective_ligament=0.049313
solver_duration=1375.345609
status=Solve_Succeeded
success=true
DataType=double
version=3
OpenSimVersion=4.4-2022-07-23-0e9fedc
endheader
time	/jointset/ground_pelvis/pelvis_tilt/value	/jointset/ground_pelvis/pelvis_tx/value	/jointset/ground_pelvis/pelvis_ty/value	/jointset/hip_l/hip_flexion_l/value	/jointset/hip_l/hip_adduction_l/value	/jointset/hip_l/hip_rotation_l/value	/jointset/back/lumbar_extension/value	/jointset/patellofemoral_l/patellar_flexion_l/value	/jointset/knee_l/knee_flexion_l/value	/jointset/knee_l/knee_adduction_l/value	/jointset/knee_l/knee_rotation_l/value	/jointset/ankle_l/ankle_angle_l/value	/jointset/subtalar_l/subtalar_angle_l/value	/jointset/ground_pelvis/pelvis_tilt/speed	/jointset/ground_pelvis/pelvis_tx/speed	/jointset/ground_pelvis/pelvis_ty/speed	/jointset/hip_l/hip_flexion_l/speed	/jointset/hip_l/hip_adduction_l/speed	/jointset/hip_l/hip_rotation_l/speed	/jointset/back/lumbar_extension/speed	/jointset/patellofemoral_l/patellar_flexion_l/speed	/jointset/knee_l/knee_flexion_l/speed	/jointset/knee_l/knee_adduction_l/speed	/jointset/knee_l/knee_rotation_l/speed	/jointset/ankle_l/ankle_angle_l/speed	/jointset/subtalar_l/subtalar_angle_l/speed	/forceset/tau_hip_flexion_l	/forceset/tau_hip_adduction_l	/forceset/tau_hip_rotation_l	/forceset/tau_knee_flexion_l	/forceset/tau_ankle_angle_l	/forceset/tau_subtalar_angle_l	/forceset/tau_lumbar_extension	lambda_cid13_p0	lambda_cid13_p1	lambda_cid13_p2	lambda_cid13_p3	lambda_cid13_p4	lambda_cid13_p5	lambda_cid14_p0	/jointset/ground_pelvis/pelvis_tilt/accel	/jointset/ground_pelvis/pelvis_tx/accel	/jointset/ground_pelvis/pelvis_ty/accel	/jointset/hip_l/hip_flexion_l/accel	/jointset/hip_l/hip_adduction_l/accel	/jointset/hip_l/hip_rotation_l/accel	/jointset/back/lumbar_extension/accel	/jointset/patellofemoral_l/patellar_flexion_l/accel	/jointset/knee_l/knee_flexion_l/accel	/jointset/knee_l/knee_adduction_l/accel	/jointset/knee_l/knee_rotation_l/accel	/jointset/ankle_l/ankle_angle_l/accel	/jointset/subtalar_l/subtalar_angle_l/accel	gamma_cid13_p0	gamma_cid13_p1	gamma_cid13_p2	gamma_cid13_p3	gamma_cid13_p4	gamma_cid13_p5	gamma_cid14_p0
0.5	0.07312591328611728	0.03861376732246039	0.8665495216282525	0.5282052159523843	-0.3324247876545591	-0.1254096151069494	-0.7492650061031422	0.7807879041297114	0.7807879041297159	-0.1235492488805736	-0.1745301349611473	0.2368406246337665	0.04463017190978866	0.3178507754926407	-0.01152234579304036	-0.2093063080965441	0.5283617896767702	-0.06736596085762786	0.4394990955181915	-0.8534798520194163	1.407756379890442	1.407756379890411	0.1056995185905639	3.050167664243517e-05	0.66191554987487	0.1778004415026961	-0.142303118717124	0.03074759281131982	-0.004303331061417761	-0.2531147068555368	-0.002116132865675913	0.04071844182926479	0.247108246428409	-44.23665314734733	-13.21260078694152	5.391951031400095	1.404723185072835	-698.5511155741691	-81.74557923013681	-15.17951446481556	-0.07989869364954362	0.2286331842783346	-0.1631401838108124	-0.8171689678121574	0.1556679842648124	-0.4501151362365759	1.226349463037159	-1.146111717205473	-1.146111717205465	-0.2328140537887946	0.007997283887040577	-0.3224851298256368	0.2115012771518627	-2.480826269331573e-08	-2.857398262763481e-07	1.127998127339126e-07	-3.686240869184715e-08	-3.570543036120441e-08	-2.070806805023592e-07	-3.251472318381482e-08
0.51	0.07629987574982058	0.03850995470766554	0.8644487685418152	0.5334472174323313	-0.3330908239480533	-0.1210379028967337	-0.7577372759106425	0.7948060714551156	0.7948060714551082	-0.1225040982955462	-0.1745297898121997	0.2434426378815404	0.04641823814129448	0.3169020243300283	-0.009241778660787014	-0.2107939852148564	0.5199471222795481	-0.06584565623691385	0.4347845122540812	-0.840868872256871	1.395669256209234	1.395669256209264	0.1033236715168801	3.328468375969021e-05	0.6583940055756237	0.1797783089538103	-0.1446254044412386	0.03201368209482146	-0.004380589592216058	-0.2563712217563742	-0.005733293858040675	0.0407950376526734	0.2507018912919685	-45.52038389912732	-13.00019047201031	5.334209453626314	1.905319823296447	-701.0644786338855	-81.58414383814295	-14.67023530929994	-0.1083184784112179	0.2275213133444657	-0.1340394112343739	-0.8673241520778248	0.1495635956827499	-0.4909865449295493	1.294257816139927	-1.271180894763879	-1.271180894754696	-0.2410423768955854	-0.004352966915816358	-0.3809613158779908	0.1857835577684184	-2.22425883674127e-08	-2.369976662913149e-07	1.131728257579749e-07	-3.163564454656464e-08	-3.089285223558428e-08	-1.811498807349448e-07	-2.910804817639269e-08
0.52	0.07946315967173097	0.0384288983313222	0.862334647097117	0.5386023305330244	-0.3337417868164053	-0.1167151078438384	-0.7660802788038621	0.8086971339034417	0.8086971339034731	-0.1214829206497587	-0.1745295711884287	0.2500066412391414	0.04822505386304637	0.3157150671336447	-0.006971098102739689	-0.2119799797488275	0.5109841138262976	-0.06435127582787974	0.4297156640527144	-0.8276264691632537	1.382335404480612	1.382335404480704	0.1009049307336945	5.196649286322206e-06	0.6543135718402266	0.1815503395520138	-0.1469476901653596	0.03327977137833435	-0.004457848122644814	-0.2596277366572282	-0.009350454850400956	0.04087163347609169	0.2542955361555182	-46.80732166715324	-12.78590281858867	5.274666101871738	2.390451329173614	-703.6366548301571	-81.43695701250982	-14.15862106495831	-0.1275399004039634	0.2266558694372432	-0.10280366694257	-0.9268371790178754	0.150483141928819	-0.5209681236878946	1.35263412925144	-1.395457326688056	-1.395457326688053	-0.2413927956892284	0.001823075568885894	-0.4342630170556457	0.1703339065697375	-2.006425423940491e-08	-1.84767326002639e-07	1.164718555686005e-07	-2.543991681911379e-08	-2.732446594896904e-08	-1.540727052637221e-07	-2.583541429890271e-08
0.53	0.08261336289145479	0.03837047867557285	0.8602101956925813	0.5436651655359908	-0.3343779209773845	-0.1124445215564771	-0.7742877976845191	0.8224486937698785	0.8224486937698613	-0.1204862170087342	-0.1745295865626442	0.2565270726695093	0.05004856100067116	0.3142854603299701	-0.004716449312609585	-0.2128571386311669	0.5014953991582007	-0.06288039903225162	0.4243517111925195	-0.8137837316902321	1.367771565938373	1.367771565938352	0.09842509487331827	-7.775545697753734e-06	0.6496797216605442	0.1831134273330444	-0.1490726288816523	0.03439602066939803	-0.004544849764167376	-0.2630596170821318	-0.01280464101187995	0.04096092608669773	0.2577286969486881	-48.04315728930391	-12.58491845197819	5.21591986096373	2.873793035863044	-706.2072606922785	-81.35294888167118	-13.64530882483945	-0.1566904267972379	0.2243225071563314	-0.07220270983670533	-0.973013510191775	0.1446579530463109	-0.5516159767393057	1.41412984772241	-1.517592724388172	-1.517592724405108	-0.2529023884789882	-0.002765081725873735	-0.4918993527211256	0.1436580487546747	-1.221380935291951e-08	-1.440607243053287e-07	7.834223844060869e-08	-2.416423434467714e-08	-1.772360020162017e-08	-1.123351814775206e-07	-1.889188018315875e-08
